<?xml version="1.0" standalone="no"?>
<!DOCTYPE svg PUBLIC "-//W3C//DTD SVG 20010904//EN"
 "http://www.w3.org/TR/2001/REC-SVG-20010904/DTD/svg10.dtd">
<svg version="1.0" xmlns="http://www.w3.org/2000/svg"
 width="559.000000pt" height="559.000000pt" viewBox="0 0 559.000000 559.000000"
 preserveAspectRatio="xMidYMid meet">
<metadata>
Created by potrace 1.14, written by Peter Selinger 2001-2017
</metadata>
<g transform="translate(0.000000,559.000000) scale(0.100000,-0.100000)"
fill="#000000" stroke="none">
<path d="M5300 4512 c0 -593 -3 -1268 -7 -1499 l-6 -419 -69 -38 c-38 -21 -71
-36 -73 -34 -2 2 -7 655 -11 1451 l-7 1447 -2334 0 -2333 0 0 -912 c0 -502 -3
-1686 -7 -2630 l-6 -1717 73 -3 73 -3 -149 -77 -149 -78 2508 0 2507 0 0 2795
c0 1537 -2 2795 -5 2795 -3 0 -5 -485 -5 -1078z m-370 -699 l-1 -1408 -447
-232 -447 -231 -3 39 c-3 38 -4 39 -42 39 -35 0 -40 -3 -46 -27 -3 -16 -11
-47 -17 -71 l-12 -44 -160 -80 c-88 -45 -433 -222 -766 -395 -333 -172 -611
-313 -617 -313 -23 0 -227 215 -295 310 -123 173 -220 397 -269 623 -20 93
-22 129 -23 407 0 301 0 307 28 425 82 346 230 604 488 849 62 58 109 109 106
112 -9 9 -191 -54 -285 -98 -189 -90 -403 -267 -538 -448 -338 -452 -374
-1070 -93 -1562 166 -289 445 -531 743 -643 l60 -22 -35 -18 c-252 -129 -1131
-587 -1181 -616 l-66 -39 -176 0 -176 0 0 1373 c0 756 -3 1847 -7 2425 l-6
1052 2141 0 2142 0 0 -1407z"/>
<path d="M4220 4540 c-35 -69 -42 -70 -369 -70 -177 0 -292 -4 -296 -10 -3 -5
7 -12 22 -16 252 -55 470 -232 578 -468 32 -70 65 -183 65 -223 0 -39 11 -53
41 -53 l29 0 0 428 c0 435 -1 452 -37 452 -7 0 -22 -18 -33 -40z"/>
<path d="M1415 4557 c-3 -6 -4 -201 -3 -432 l3 -420 25 0 c19 0 26 6 28 25 13
121 79 286 157 395 106 149 285 268 473 315 90 23 27 30 -259 30 -323 0 -333
2 -363 65 -17 35 -52 48 -61 22z"/>
<path d="M2637 4463 c-4 -3 -7 -591 -7 -1307 l0 -1300 -21 -44 c-25 -50 -85
-99 -135 -108 -29 -5 -34 -10 -34 -35 l0 -29 405 0 405 0 0 30 c0 25 -4 30
-35 36 -51 9 -109 56 -134 106 l-21 44 0 1291 c0 710 -3 1298 -6 1307 -5 14
-33 16 -208 16 -112 0 -206 -3 -209 -7z"/>
<path d="M3286 3791 c-3 -4 37 -35 89 -69 287 -188 484 -476 560 -815 l17 -78
37 3 36 3 0 435 0 435 -22 0 c-14 0 -30 -13 -45 -35 -13 -19 -41 -44 -62 -54
-38 -19 -39 -19 -85 2 -25 11 -98 43 -161 71 -155 68 -352 123 -364 102z"/>
<path d="M285 2500 c0 -1378 1 -1941 2 -1252 2 688 2 1816 0 2505 -1 688 -2
125 -2 -1253z"/>
</g>
</svg>
